<?xml version="1.0" standalone="no"?>
<!DOCTYPE svg PUBLIC "-//W3C//DTD SVG 1.1//EN" "http://www.w3.org/Graphics/SVG/1.1/DTD/svg11.dtd" >
<svg xmlns="http://www.w3.org/2000/svg">
<metadata>
This is a custom SVG webfont generated by Font Squirrel.
Copyright   : 2004 Vic Fieger Xaviera Comics
</metadata>
<defs>
<font id="AirstripFourRegular" horiz-adv-x="1302" >
<font-face units-per-em="2048" ascent="1638" descent="-410" />
<missing-glyph horiz-adv-x="569" />
<glyph unicode=" "  horiz-adv-x="569" />
<glyph unicode="&#x09;" horiz-adv-x="569" />
<glyph unicode="&#xa0;" horiz-adv-x="569" />
<glyph unicode="!" horiz-adv-x="794" d="M143 145q0 39 20 75t55.5 55t73.5 19q37 0 72.5 -19t55.5 -55t20 -75q0 -38 -19.5 -73.5t-55 -54.5t-73.5 -19q-39 0 -74 19t-55 54.5t-20 73.5zM150 548q0 -152 152 -152q148 0 148 152v997q0 148 -150 157q-152 -5 -150 -160v-994z" />
<glyph unicode="&#x22;" horiz-adv-x="1204" d="M1 1293v208q-2 201 148 198q148 3 148 -198v-208q-3 -196 -148 -197q-150 4 -148 197zM502 1293v208q-2 201 149 198q147 3 147 -198v-208q-3 -196 -147 -197q-151 4 -149 197z" />
<glyph unicode="#" horiz-adv-x="1699" d="M-207 449q5 -152 159 -150h994q152 0 152 152q0 148 -152 148h-997q-148 0 -156 -150zM-207 1049q5 -152 159 -150h994q152 0 152 152q0 148 -152 148h-997q-148 0 -156 -150zM0 248q0 -152 152 -152q148 0 148 152v997q0 148 -150 157q-151 -5 -150 -160v-994zM600 248 q0 -152 152 -152q148 0 148 152v997q0 148 -150 157q-152 -5 -150 -160v-994z" />
<glyph unicode="$" horiz-adv-x="1599" d="M3 1112q-1 -470 452 -467l295 -1q148 -1 148 -182q-2 -166 -151 -166h-502q-143 -1 -145 -157q2 -139 146 -138l502 -1q446 1 448 464q1 475 -448 481h-294q-154 0 -154 161q0 195 153 195h502q143 3 146 151q0 148 -150 148l-501 1q-450 0 -447 -489zM441 -51 q0 -152 152 -152q148 0 148 152v1693q0 148 -150 157q-152 -5 -150 -160v-1690z" />
<glyph unicode="%" horiz-adv-x="1561" d="M-298 1437q0 -302 302 -302q303 0 303 305q0 303 -302 303q-303 0 -303 -306zM-262 108q-77 -131 53 -208q128 -75 205 56l911 1542q76 127 -49 211q-133 73 -210 -60zM-138 1432q0 149 147 149q152 0 152 -149q0 -154 -152 -154q-147 0 -147 154zM329 174 q0 -302 303 -302q302 0 302 305q0 303 -302 303q-303 0 -303 -306zM489 169q0 149 148 149q152 0 152 -149q0 -154 -152 -154q-148 0 -148 154z" />
<glyph unicode="&#x26;" horiz-adv-x="1504" d="M0 456q0 -457 452 -457h195q455 0 455 454q0 549 -450 549h-352q0 302 202 301h262q144 0 143 149q-1 150 -145 150h-255q-507 0 -507 -598q2 -152 155 -153q-153 2 -155 -153v-242zM300 449v253h349q153 0 153 -248q0 -154 -152 -154h-202q-148 0 -148 149zM403 849 q1 -144 198 -147h401q202 0 199 147q3 151 -199 149h-401q-194 2 -198 -149zM805 45q-2 -193 148 -197q145 1 148 197v401q0 202 -148 199q-150 3 -148 -199v-401z" />
<glyph unicode="'" horiz-adv-x="705" d="M1 1293v208q-2 201 148 198q148 3 148 -198v-208q-3 -196 -148 -197q-150 4 -148 197z" />
<glyph unicode="(" horiz-adv-x="798" d="M0 56q0 -460 369 -460q127 0 127 148q0 151 -119 152q-77 0 -77 153v1290q0 158 65 157q129 3 130 149q0 150 -121 149q-374 0 -374 -454v-1284z" />
<glyph unicode=")" horiz-adv-x="797" d="M0 -256q0 -148 127 -148q369 0 369 460v1284q0 454 -375 454q-120 1 -120 -149q1 -146 130 -149q65 1 65 -157v-1290q0 -153 -78 -153q-118 -1 -118 -152z" />
<glyph unicode="*" horiz-adv-x="1001" d="M1 1436q4 101 98 100h401q107 1 104 -100q3 -99 -104 -99h-401q-97 2 -98 99zM94 1531q-58 77 17 138q82 59 139 -16l248 -316q67 -83 -14 -143q-77 -63 -142 21zM98 1320l236 325q62 87 142 26q81 -56 19 -143l-237 -324q-58 -78 -137 -22q-80 63 -23 138z" />
<glyph unicode="+" horiz-adv-x="1202" d="M1 950q4 151 197 149h402q201 2 198 -149q3 -148 -198 -148h-402q-196 3 -197 148zM251 749v402q-2 201 149 198q148 3 148 -198v-402q-3 -196 -148 -197q-151 4 -149 197z" />
<glyph unicode="," horiz-adv-x="799" d="M3 199q-3 202 199 199q197 3 197 -199v-401q-4 -196 -197 -197q-202 4 -199 197v401z" />
<glyph unicode="-" horiz-adv-x="1202" d="M1 950q4 151 197 149h402q201 2 198 -149q3 -148 -198 -148h-402q-196 3 -197 148z" />
<glyph unicode="." horiz-adv-x="799" d="M3 199q0 52 26.5 100t74 73.5t98.5 25.5q49 0 96.5 -25.5t74 -73.5t26.5 -100q0 -50 -26 -97.5t-73.5 -73.5t-97.5 -26q-52 0 -99 26t-73.5 73.5t-26.5 97.5z" />
<glyph unicode="/" horiz-adv-x="799" d="M-132 -150q-49 -144 95 -193q140 -48 189 96l579 1696q47 140 -92 196q-145 45 -193 -102z" />
<glyph unicode="0" d="M0 450q0 -450 447 -450h205q450 0 450 460v692q0 451 -452 451h-199q-451 0 -451 -452v-701zM300 454v698q0 149 148 149h202q152 0 152 -145v-702q0 -154 -152 -154h-202q-148 0 -148 154z" />
<glyph unicode="1" horiz-adv-x="1301" d="M251 1448q-3 -146 150 -146v-1145q0 -153 152 -153q148 0 148 153v1296q0 149 -150 151l-150 -2q-150 -3 -150 -154z" />
<glyph unicode="2" d="M0 1445q0 -147 151 -149h499q152 0 152 -145v-52q0 -154 -152 -154q-644 3 -645 -500v-290q-2 -155 145 -155h812q137 1 137 147q-1 143 -138 149h-656v153q0 196 347 196q450 0 450 460v42q0 451 -452 451h-502q-148 0 -148 -153z" />
<glyph unicode="3" d="M0 146q0 -148 150 -148h502q450 0 450 460v242q-1 144 -149 154q145 -2 149 147v444q0 150 -150 150h-794q-157 1 -157 -149q1 -146 153 -149l648 1v-299l-449 2q-152 -2 -152 -155q-1 -146 149 -146l452 -1v-248q0 -153 -153 -153l-502 -1q-147 0 -147 -151z" />
<glyph unicode="4" d="M0 861q0 -460 450 -460h352v-250q0 -153 150 -153t150 149v1299q0 152 -148 152q-152 0 -152 -152v-745h-350q-152 0 -152 154v591q0 152 -150 152t-150 -150v-587z" />
<glyph unicode="5" horiz-adv-x="1201" d="M0 139q1 -139 146 -138l405 -1q445 1 447 499q1 498 -447 504l-248 1l-1 297h552q143 3 146 151q0 148 -150 148l-685 1q-165 0 -165 -155l1 -601q1 -145 149 -145l402 2q148 -1 148 -205q-2 -201 -151 -201h-404q-144 -1 -145 -157z" />
<glyph unicode="6" d="M0 456q0 -457 452 -457h195q455 0 455 454q0 549 -450 549h-352q0 302 202 301h262q144 0 143 149q-1 150 -145 150h-255q-507 0 -507 -598v-548zM300 449v253h349q153 0 153 -248q0 -154 -152 -154h-202q-148 0 -148 149z" />
<glyph unicode="7" horiz-adv-x="1201" d="M0 1206q0 -152 147 -152q153 0 153 152v98h247q153 0 153 -154v-1000q0 -152 150 -152t150 150v996q0 460 -450 460l-400 -1q-150 0 -150 -148v-249z" />
<glyph unicode="8" d="M0 450q0 -450 447 -450h205q450 0 450 460v92q0 451 -452 451h-199q-451 0 -451 -452v-101zM0 1152q0 -450 447 -450h205q450 0 450 460q0 441 -452 441h-199q-451 0 -451 -451zM300 454v98q0 149 148 149h202q152 0 152 -145v-102q0 -154 -152 -154h-202 q-148 0 -148 154zM300 1152q0 149 148 149h202q152 0 152 -145q0 -154 -152 -154h-202q-148 0 -148 150z" />
<glyph unicode="9" d="M0 1148q0 -445 450 -445h352q0 -406 -202 -405h-262q-144 0 -143 -149q1 -150 145 -150h255q507 0 507 702v444q0 457 -452 457h-195q-455 0 -455 -454zM300 1147q0 154 152 154h202q148 0 148 -149v-149h-349q-153 0 -153 144z" />
<glyph unicode=":" horiz-adv-x="799" d="M3 199q0 52 26.5 100t74 73.5t98.5 25.5q49 0 96.5 -25.5t74 -73.5t26.5 -100q0 -50 -26 -97.5t-73.5 -73.5t-97.5 -26q-52 0 -99 26t-73.5 73.5t-26.5 97.5zM3 998q0 52 26.5 100t74 73.5t98.5 25.5q49 0 96.5 -25.5t74 -73.5t26.5 -100q0 -51 -26 -98t-73.5 -73 t-97.5 -26q-52 0 -99 26t-73.5 73t-26.5 98z" />
<glyph unicode=";" horiz-adv-x="799" d="M3 199q-3 202 199 199q197 3 197 -199v-401q-4 -196 -197 -197q-202 4 -199 197v401zM3 998q0 52 26.5 100t74 73.5t98.5 25.5q49 0 96.5 -25.5t74 -73.5t26.5 -100q0 -51 -26 -98t-73.5 -73t-97.5 -26q-52 0 -99 26t-73.5 73t-26.5 98z" />
<glyph unicode="&#x37e;" horiz-adv-x="799" d="M3 199q-3 202 199 199q197 3 197 -199v-401q-4 -196 -197 -197q-202 4 -199 197v401zM3 998q0 52 26.5 100t74 73.5t98.5 25.5q49 0 96.5 -25.5t74 -73.5t26.5 -100q0 -51 -26 -98t-73.5 -73t-97.5 -26q-52 0 -99 26t-73.5 73t-26.5 98z" />
<glyph unicode="&#x3c;" horiz-adv-x="1702" d="M-96.5 599.5q5.5 -58.5 96.5 -94.5l1049 -405q152 0 152 147q-3 91 -54 122t-800 281q749 252 801.5 279.5t52.5 122.5q0 150 -150 150l-1051 -401q-85 -42 -93.5 -92.5t-3 -109z" />
<glyph unicode="=" horiz-adv-x="1202" d="M1 1149q4 151 197 148h402q201 3 198 -148q3 -148 -198 -148h-402q-196 3 -197 148zM10 746q4 151 198 149h401q202 2 199 -149q3 -147 -199 -147h-401q-197 3 -198 147z" />
<glyph unicode="&#x3e;" horiz-adv-x="1702" d="M-99 247q0 -147 152 -147l1050 405q91 36 96.5 94.5t-3 109t-93.5 92.5l-1052 401q-150 0 -150 -150q0 -95 52.5 -122.5t801.5 -279.5q-749 -250 -800 -281t-54 -122z" />
<glyph unicode="?" d="M0 1544q0 -147 151 -149h499q152 0 152 -145v-52q0 -154 -152 -154q-404 3 -406 -500q0 -149 150 -149t150 153q0 196 108 196q450 0 450 460v42q0 451 -452 451h-502q-148 0 -148 -153zM245 148q0 39 20 75t55.5 55t73.5 19q37 0 72.5 -19t55.5 -55t20 -75 q0 -38 -19.5 -73.5t-55 -55t-73.5 -19.5q-39 0 -74 19.5t-55 55t-20 73.5z" />
<glyph unicode="@" horiz-adv-x="1915" d="M0 496q1 -693 691 -693q110 -1 110 103q1 115 -112 114q-469 1 -471 475v212q1 475 479 475l463 1q149 -2 149 -143l-1 -842q1 -84 -70 -81q-78 3 -75 81v729q0 111 -106 111h-363q-331 0 -331 -331v-204q0 -334 327 -334q244 0 255 144l1 -144q0 -262 291 -264 q284 3 290 264l-2 868q0 367 -365 367l-470 -3q-690 -1 -689 -692zM581 498v209q0 112 111 112h254v-432h-254q-111 0 -111 111z" />
<glyph unicode="A" d="M0 148q0 -150 150 -150t150 152l1 250l497 -1v-249q0 -152 153 -152q147 0 147 152v999q0 148 -150 148l-498 1q-450 0 -450 -460v-690zM300 701v143q0 154 153 154h345v-297h-498z" />
<glyph unicode="B" d="M0 150q0 -152 148 -152h502q452 0 452 450v390q0 460 -450 460h-352v250q0 153 -150 153t-150 -149v-1402zM300 299v699h350q152 0 152 -154v-400q0 -145 -152 -145h-350z" />
<glyph unicode="C" d="M0 458q0 -460 450 -460h502q150 0 150 148q0 151 -147 151l-502 1q-153 0 -153 153v392q0 157 144 157h2h502q152 3 153 149q0 149 -155 149h-2h-494q-450 0 -450 -454v-386z" />
<glyph unicode="D" d="M0 448q0 -450 453 -450h502q147 0 147 152v1402q0 149 -150 149t-150 -153v-250h-352q-450 0 -450 -460v-390zM300 444v400q0 154 153 154h349v-699h-350q-152 0 -152 145z" />
<glyph unicode="E" d="M0 458q0 -460 450 -460h502q150 0 150 148q0 151 -147 151l-502 1q-153 0 -153 153v50l452 1q150 0 149 146q0 153 -152 155l-449 -2v200l648 -1q152 3 153 149q0 149 -155 149h-2h-794q-150 0 -150 -150v-690z" />
<glyph unicode="F" horiz-adv-x="899" d="M0 148q0 -150 150 -150h2q149 0 148 149v653l244 1h2q155 0 155 149q0 146 -152 149l-249 -1v147q0 153 153 153l102 1q148 0 148 151q0 148 -150 148h-103q-450 0 -450 -460v-1090z" />
<glyph unicode="G" d="M0 461q0 -460 450 -460h352q0 -104 -105 -104h-2h-357q-143 0 -143 -147q0 -152 145 -152h312q450 0 450 443v1108q0 152 -147 152h-500q-455 0 -455 -455v-385zM300 455v391q0 154 152 154h350v-699h-349q-153 0 -153 154z" />
<glyph unicode="H" d="M0 150q0 -152 148 -152q152 0 152 152v848h350q152 0 152 -154v-694q0 -152 150 -152t150 150v690q0 460 -450 460h-352v250q0 153 -150 153t-150 -149v-1402z" />
<glyph unicode="I" horiz-adv-x="653" d="M0 1143q-2 -145 150 -145v-846q0 -152 152 -152q148 0 148 152v997q0 148 -150 151l-150 -2q-150 -3 -150 -155zM143 1550q0 39 20 75t55.5 55t73.5 19q37 0 72.5 -19t55.5 -55t20 -75q0 -38 -19.5 -73.5t-55 -55t-73.5 -19.5q-39 0 -74 19.5t-55 55t-20 73.5z" />
<glyph unicode="J" horiz-adv-x="649" d="M0 -251q0 -149 150 -149h103q450 0 450 459v1091q0 150 -150 150l-147 -2h-2q-155 0 -155 -149q1 -146 154 -148v-948q0 -153 -153 -153l-102 -1q-148 0 -148 -150zM399 1550q0 39 20 75t55.5 55t72.5 19q38 0 73.5 -19t55.5 -55t20 -75q0 -38 -19.5 -73.5t-55 -55 t-74.5 -19.5q-38 0 -73.5 19.5t-55 55t-19.5 73.5z" />
<glyph unicode="K" d="M0 150q0 -152 148 -152q147 2 152 156v844h350q152 0 152 -154q-2 -146 -152 -146l-106 1q-146 0 -146 -146q3 -151 149 -154l231 -327q43 -72 142 -72h5q153 0 154 140v10q0 100 -55 148l-86 103q164 93 164 437q0 460 -450 460h-352v250q0 153 -150 153t-150 -149 v-1402z" />
<glyph unicode="L" horiz-adv-x="653" d="M0 151q0 -149 150 -151l150 2q150 3 150 154v6q0 140 -150 140v1248q0 153 -152 153q-148 0 -148 -153v-1399z" />
<glyph unicode="M" horiz-adv-x="1900" d="M0 152q0 -152 148 -152q152 0 152 152v846h248q152 0 152 -154v-694q0 -152 150 -152t150 150l-2 850h249q153 0 153 -154v-694q0 -152 150 -152t150 150v690q0 460 -450 460l-1097 2q-153 -3 -153 -151v-997z" />
<glyph unicode="N" d="M0 152q0 -152 148 -152q152 0 152 152v846h350q152 0 152 -154v-694q0 -152 150 -152t150 150v690q0 460 -450 460l-502 -1q-150 0 -150 -148v-997z" />
<glyph unicode="O" d="M0 450q0 -450 447 -450h205q450 0 450 460v389q0 451 -452 451h-199q-451 0 -451 -452v-398zM300 454v395q0 149 148 149h202q152 0 152 -145v-399q0 -154 -152 -154h-202q-148 0 -148 154z" />
<glyph unicode="P" d="M0 -254q0 -149 150 -149t150 153v250h352q450 0 450 460v389q0 451 -452 451h-502q-148 0 -148 -153v-1401zM300 300v698h350q152 0 152 -145v-399q0 -154 -152 -154h-350z" />
<glyph unicode="Q" d="M0 460q0 -460 450 -460h352v-250q0 -153 150 -153t150 149v1401q0 153 -147 153h-502q-453 0 -453 -451v-389zM300 454v399q0 145 152 145h350v-698h-349q-153 0 -153 154z" />
<glyph unicode="R" horiz-adv-x="1201" d="M0 148q0 -150 150 -150t150 152v694q0 154 153 154h247v-98q0 -152 153 -152q147 0 147 152v249q0 148 -150 148l-400 1q-450 0 -450 -460v-690z" />
<glyph unicode="S" horiz-adv-x="1201" d="M0 139q1 -138 144 -138h2l405 -1q447 1 447 402q0 391 -447 398h-97q-154 0 -154 96q0 102 153 102h401q143 3 146 151q0 148 -150 148l-400 1q-447 0 -447 -391v-5q-1 -403 448 -403h4h97q148 -2 148 -101q-2 -102 -151 -102h-404q-144 -1 -145 -157z" />
<glyph unicode="T" horiz-adv-x="899" d="M0 458q0 -460 450 -460h103q150 0 150 148q0 151 -148 151l-102 1q-153 0 -153 153v550l249 -1q152 3 152 149q0 149 -155 149h-2l-244 1v149q1 150 -148 150h-2q-150 0 -150 -150v-990z" />
<glyph unicode="U" d="M0 461q0 -460 450 -460l502 -1q150 0 150 148v1001q0 152 -147 152q-153 0 -153 -152v-848h-349q-153 0 -153 154v694q0 152 -150 152t-150 -150v-690z" />
<glyph unicode="V" horiz-adv-x="1110" d="M0 1151l401 -1052q43 -85 93 -93q31 -5 64 -6q22 0 44 2q58 6 95 97l405 1050q0 152 -147 152q-91 -3 -122 -54t-281 -800q-252 749 -279.5 801.5t-122.5 52.5q-150 0 -150 -150z" />
<glyph unicode="W" horiz-adv-x="1900" d="M0 460q0 -460 450 -460l1097 -2q153 3 153 151v997q0 152 -148 152q-152 0 -152 -152v-846h-248q-152 0 -152 154v694q0 152 -150 152t-150 -150l2 -850h-249q-153 0 -153 154v694q0 152 -150 152t-150 -150v-690z" />
<glyph unicode="X" horiz-adv-x="1297" d="M52 262q-48 -54 -48 -106q0 -57 58 -111q53 -46 103 -46q57 0 109 60l773 984q48 55 48 106q0 56 -58 107q-53 47 -103 47q-58 0 -112 -62zM53 1043l772 -984q53 -60 110 -60q50 0 103 46q58 54 58 111q0 52 -48 106l-770 979q-55 62 -113 62q-50 0 -103 -47 q-57 -51 -57 -107q0 -51 48 -106z" />
<glyph unicode="Y" d="M0 461q0 -460 450 -460h352q0 -104 -105 -104h-2h-357q-143 0 -143 -147q0 -152 145 -152h312q450 0 450 443v1108q0 152 -147 152q-153 0 -153 -152v-848h-349q-153 0 -153 154v694q0 152 -150 152t-150 -150v-690z" />
<glyph unicode="Z" horiz-adv-x="1299" d="M0 1144q0 -145 159 -145h2h474l-583 -737q-52 -60 -52 -119q0 -29 12 -57q38 -86 134 -86h4h804q146 0 145 146q0 152 -146 152h-487l581 745q53 75 53 131q0 30 -15 54q-43 70 -133 73l-793 -3q-159 0 -159 -154z" />
<glyph unicode="[" horiz-adv-x="800" d="M0 -253q0 -149 150 -151l150 2q150 3 150 154q3 146 -150 146v1602q153 1 149 151q2 148 -149 150l-152 1q-148 0 -148 -153v-1902z" />
<glyph unicode="\" horiz-adv-x="799" d="M-132 1449l578 -1696q50 -144 190 -96q144 49 94 193l-578 1693q-48 147 -193 102q-139 -56 -91 -196z" />
<glyph unicode="]" horiz-adv-x="800" d="M0 -248q0 -151 150 -154l150 -2q150 2 150 151v1902q0 153 -148 153l-152 -1q-151 -2 -149 -150q-3 -150 149 -151v-1602q-152 0 -150 -146z" />
<glyph unicode="^" horiz-adv-x="1209" d="M199 1502q0 61 50 98l352 205l356 -208q47 -36 46 -101q0 -94 -101 -97q-52 0 -102 24l-205 125l-196 -124q-38 -24 -99 -25q-103 7 -101 103z" />
<glyph unicode="_" horiz-adv-x="1602" d="M1 145q4 151 197 149h809q201 2 198 -149q3 -147 -198 -147h-809q-196 3 -197 147z" />
<glyph unicode="`" horiz-adv-x="1399" d="M231 1720q49 142 238 71l376 -139q183 -65 135 -208q-52 -135 -237 -70l-376 139q-190 69 -136 207z" />
<glyph unicode="a" d="M0 148q0 -150 150 -150t150 152l1 250l497 -1v-249q0 -152 153 -152q147 0 147 152v999q0 148 -150 148l-498 1q-450 0 -450 -460v-690zM300 701v143q0 154 153 154h345v-297h-498z" />
<glyph unicode="b" d="M0 150q0 -152 148 -152h502q452 0 452 450v390q0 460 -450 460h-352v250q0 153 -150 153t-150 -149v-1402zM300 299v699h350q152 0 152 -154v-400q0 -145 -152 -145h-350z" />
<glyph unicode="c" d="M0 458q0 -460 450 -460h502q150 0 150 148q0 151 -147 151l-502 1q-153 0 -153 153v392q0 157 144 157h2h502q152 3 153 149q0 149 -155 149h-2h-494q-450 0 -450 -454v-386z" />
<glyph unicode="d" d="M0 448q0 -450 453 -450h502q147 0 147 152v1402q0 149 -150 149t-150 -153v-250h-352q-450 0 -450 -460v-390zM300 444v400q0 154 153 154h349v-699h-350q-152 0 -152 145z" />
<glyph unicode="e" d="M0 458q0 -460 450 -460h502q150 0 150 148q0 151 -147 151l-502 1q-153 0 -153 153v50l452 1q150 0 149 146q0 153 -152 155l-449 -2v200l648 -1q152 3 153 149q0 149 -155 149h-2h-794q-150 0 -150 -150v-690z" />
<glyph unicode="f" horiz-adv-x="899" d="M0 148q0 -150 150 -150h2q149 0 148 149v653l244 1h2q155 0 155 149q0 146 -152 149l-249 -1v147q0 153 153 153l102 1q148 0 148 151q0 148 -150 148h-103q-450 0 -450 -460v-1090z" />
<glyph unicode="g" d="M0 461q0 -460 450 -460h352q0 -104 -105 -104h-2h-357q-143 0 -143 -147q0 -152 145 -152h312q450 0 450 443v1108q0 152 -147 152h-500q-455 0 -455 -455v-385zM300 455v391q0 154 152 154h350v-699h-349q-153 0 -153 154z" />
<glyph unicode="h" d="M0 150q0 -152 148 -152q152 0 152 152v848h350q152 0 152 -154v-694q0 -152 150 -152t150 150v690q0 460 -450 460h-352v250q0 153 -150 153t-150 -149v-1402z" />
<glyph unicode="i" horiz-adv-x="653" d="M0 1143q-2 -145 150 -145v-846q0 -152 152 -152q148 0 148 152v997q0 148 -150 151l-150 -2q-150 -3 -150 -155zM143 1550q0 39 20 75t55.5 55t73.5 19q37 0 72.5 -19t55.5 -55t20 -75q0 -38 -19.5 -73.5t-55 -55t-73.5 -19.5q-39 0 -74 19.5t-55 55t-20 73.5z" />
<glyph unicode="j" horiz-adv-x="649" d="M0 -251q0 -149 150 -149h103q450 0 450 459v1091q0 150 -150 150l-147 -2h-2q-155 0 -155 -149q1 -146 154 -148v-948q0 -153 -153 -153l-102 -1q-148 0 -148 -150zM399 1550q0 39 20 75t55.5 55t72.5 19q38 0 73.5 -19t55.5 -55t20 -75q0 -38 -19.5 -73.5t-55 -55 t-74.5 -19.5q-38 0 -73.5 19.5t-55 55t-19.5 73.5z" />
<glyph unicode="k" d="M0 150q0 -152 148 -152q147 2 152 156v844h350q152 0 152 -154q-2 -146 -152 -146l-106 1q-146 0 -146 -146q3 -151 149 -154l231 -327q43 -72 142 -72h5q153 0 154 140v10q0 100 -55 148l-86 103q164 93 164 437q0 460 -450 460h-352v250q0 153 -150 153t-150 -149 v-1402z" />
<glyph unicode="l" horiz-adv-x="653" d="M0 151q0 -149 150 -151l150 2q150 3 150 154v6q0 140 -150 140v1248q0 153 -152 153q-148 0 -148 -153v-1399z" />
<glyph unicode="m" horiz-adv-x="1900" d="M0 152q0 -152 148 -152q152 0 152 152v846h248q152 0 152 -154v-694q0 -152 150 -152t150 150l-2 850h249q153 0 153 -154v-694q0 -152 150 -152t150 150v690q0 460 -450 460l-1097 2q-153 -3 -153 -151v-997z" />
<glyph unicode="n" d="M0 152q0 -152 148 -152q152 0 152 152v846h350q152 0 152 -154v-694q0 -152 150 -152t150 150v690q0 460 -450 460l-502 -1q-150 0 -150 -148v-997z" />
<glyph unicode="o" d="M0 450q0 -450 447 -450h205q450 0 450 460v389q0 451 -452 451h-199q-451 0 -451 -452v-398zM300 454v395q0 149 148 149h202q152 0 152 -145v-399q0 -154 -152 -154h-202q-148 0 -148 154z" />
<glyph unicode="p" d="M0 -254q0 -149 150 -149t150 153v250h352q450 0 450 460v389q0 451 -452 451h-502q-148 0 -148 -153v-1401zM300 300v698h350q152 0 152 -145v-399q0 -154 -152 -154h-350z" />
<glyph unicode="q" d="M0 460q0 -460 450 -460h352v-250q0 -153 150 -153t150 149v1401q0 153 -147 153h-502q-453 0 -453 -451v-389zM300 454v399q0 145 152 145h350v-698h-349q-153 0 -153 154z" />
<glyph unicode="r" horiz-adv-x="1201" d="M0 148q0 -150 150 -150t150 152v694q0 154 153 154h247v-98q0 -152 153 -152q147 0 147 152v249q0 148 -150 148l-400 1q-450 0 -450 -460v-690z" />
<glyph unicode="s" horiz-adv-x="1201" d="M0 139q1 -138 144 -138h2l405 -1q447 1 447 402q0 391 -447 398h-97q-154 0 -154 96q0 102 153 102h401q143 3 146 151q0 148 -150 148l-400 1q-447 0 -447 -391v-5q-1 -403 448 -403h4h97q148 -2 148 -101q-2 -102 -151 -102h-404q-144 -1 -145 -157z" />
<glyph unicode="t" horiz-adv-x="899" d="M0 458q0 -460 450 -460h103q150 0 150 148q0 151 -148 151l-102 1q-153 0 -153 153v550l249 -1q152 3 152 149q0 149 -155 149h-2l-244 1v149q1 150 -148 150h-2q-150 0 -150 -150v-990z" />
<glyph unicode="u" d="M0 461q0 -460 450 -460l502 -1q150 0 150 148v1001q0 152 -147 152q-153 0 -153 -152v-848h-349q-153 0 -153 154v694q0 152 -150 152t-150 -150v-690z" />
<glyph unicode="v" horiz-adv-x="1110" d="M0 1151l401 -1052q43 -85 93 -93q31 -5 64 -6q22 0 44 2q58 6 95 97l405 1050q0 152 -147 152q-91 -3 -122 -54t-281 -800q-252 749 -279.5 801.5t-122.5 52.5q-150 0 -150 -150z" />
<glyph unicode="w" horiz-adv-x="1900" d="M0 460q0 -460 450 -460l1097 -2q153 3 153 151v997q0 152 -148 152q-152 0 -152 -152v-846h-248q-152 0 -152 154v694q0 152 -150 152t-150 -150l2 -850h-249q-153 0 -153 154v694q0 152 -150 152t-150 -150v-690z" />
<glyph unicode="x" horiz-adv-x="1297" d="M52 262q-48 -54 -48 -106q0 -57 58 -111q53 -46 103 -46q57 0 109 60l773 984q48 55 48 106q0 56 -58 107q-53 47 -103 47q-58 0 -112 -62zM53 1043l772 -984q53 -60 110 -60q50 0 103 46q58 54 58 111q0 52 -48 106l-770 979q-55 62 -113 62q-50 0 -103 -47 q-57 -51 -57 -107q0 -51 48 -106z" />
<glyph unicode="y" d="M0 461q0 -460 450 -460h352q0 -104 -105 -104h-2h-357q-143 0 -143 -147q0 -152 145 -152h312q450 0 450 443v1108q0 152 -147 152q-153 0 -153 -152v-848h-349q-153 0 -153 154v694q0 152 -150 152t-150 -150v-690z" />
<glyph unicode="z" horiz-adv-x="1299" d="M0 1144q0 -145 159 -145h2h474l-583 -737q-52 -60 -52 -119q0 -29 12 -57q38 -86 134 -86h4h804q146 0 145 146q0 152 -146 152h-487l581 745q53 75 53 131q0 30 -15 54q-43 70 -133 73l-793 -3q-159 0 -159 -154z" />
<glyph unicode="{" horiz-adv-x="684" />
<glyph unicode="|" horiz-adv-x="532" />
<glyph unicode="}" horiz-adv-x="684" />
<glyph unicode="~" horiz-adv-x="1249" d="M93 1534q-1 78 67 111q206 95 400 -3q205 -101 402 8q72 38 75 -99q4 -70 -74 -103q-202 -106 -398 -4q-205 100 -401 -12q-70 -30 -71 102z" />
<glyph unicode="&#xa1;" horiz-adv-x="794" d="M143 154q0 -148 150 -156q152 4 150 158v995q0 152 -152 152q-148 0 -148 -152v-997zM153 1554q0 38 19.5 73.5t55 55t73.5 19.5q39 0 74 -19.5t55 -55t20 -73.5q0 -39 -20 -75t-55.5 -55t-73.5 -19q-37 0 -72.5 19t-55.5 55t-20 75z" />
<glyph unicode="&#xa2;" horiz-adv-x="1139" />
<glyph unicode="&#xa3;" horiz-adv-x="1255" d="M-148 148q0 -149 149 -149h943q157 -1 157 148q-1 146 -153 149l-648 -1v299l251 -2q152 2 152 155q1 146 -149 146l-254 1v248q0 153 153 153l298 1q147 0 147 151q0 148 -150 148h-298q-450 0 -450 -460v-838q-145 0 -148 -149z" />
<glyph unicode="&#xa5;" horiz-adv-x="1139" />
<glyph unicode="&#xa6;" horiz-adv-x="532" />
<glyph unicode="&#xa7;" horiz-adv-x="1139" />
<glyph unicode="&#xa8;" horiz-adv-x="682" />
<glyph unicode="&#xa9;" horiz-adv-x="1509" />
<glyph unicode="&#xaa;" horiz-adv-x="758" />
<glyph unicode="&#xab;" horiz-adv-x="1139" />
<glyph unicode="&#xac;" horiz-adv-x="1196" />
<glyph unicode="&#xad;" horiz-adv-x="1202" d="M1 950q4 151 197 149h402q201 2 198 -149q3 -148 -198 -148h-402q-196 3 -197 148z" />
<glyph unicode="&#xae;" horiz-adv-x="1509" />
<glyph unicode="&#xaf;" horiz-adv-x="1131" />
<glyph unicode="&#xb0;" horiz-adv-x="819" />
<glyph unicode="&#xb1;" horiz-adv-x="1124" />
<glyph unicode="&#xb2;" horiz-adv-x="682" />
<glyph unicode="&#xb3;" horiz-adv-x="682" />
<glyph unicode="&#xb4;" horiz-adv-x="682" />
<glyph unicode="&#xb5;" horiz-adv-x="1180" />
<glyph unicode="&#xb6;" horiz-adv-x="1100" />
<glyph unicode="&#xb7;" horiz-adv-x="569" />
<glyph unicode="&#x2219;" horiz-adv-x="569" />
<glyph unicode="&#xb8;" horiz-adv-x="682" />
<glyph unicode="&#xb9;" horiz-adv-x="682" />
<glyph unicode="&#xba;" horiz-adv-x="748" />
<glyph unicode="&#xbb;" horiz-adv-x="1139" />
<glyph unicode="&#xbc;" horiz-adv-x="1708" />
<glyph unicode="&#xbd;" horiz-adv-x="1708" />
<glyph unicode="&#xbe;" horiz-adv-x="1708" />
<glyph unicode="&#xbf;" d="M0 451q0 -451 452 -451h502q148 0 148 153q1 147 -151 149h-499q-152 0 -152 145v52q0 154 152 154q404 -3 406 500q0 149 -150 149t-150 -153q0 -196 -108 -196q-450 0 -450 -460v-42zM560 1549q0 38 19.5 73.5t55 55t73.5 19.5q39 0 74 -19.5t55 -55t20 -73.5 q0 -39 -20 -75t-55.5 -55t-73.5 -19q-37 0 -72.5 19t-55.5 55t-20 75z" />
<glyph unicode="&#xc0;" d="M0 148q0 -150 150 -150t150 152l1 250l497 -1v-249q0 -152 153 -152q147 0 147 152v999q0 148 -150 148l-498 1q-450 0 -450 -460v-690zM231 1720q49 142 238 71l376 -139q183 -65 135 -208q-52 -135 -237 -70l-376 139q-190 69 -136 207zM300 701v143q0 154 153 154h345 v-297h-498z" />
<glyph unicode="&#xc1;" d="M0 148q0 -150 150 -150t150 152l1 250l497 -1v-249q0 -152 153 -152q147 0 147 152v999q0 148 -150 148l-498 1q-450 0 -450 -460v-690zM229 1444q-48 143 134 208l377 139q188 71 238 -71q54 -138 -136 -207l-376 -139q-186 -65 -237 70zM300 701v143q0 154 153 154h345 v-297h-498z" />
<glyph unicode="&#xc2;" d="M0 148q0 -150 150 -150t150 152l1 250l497 -1v-249q0 -152 153 -152q147 0 147 152v999q0 148 -150 148l-498 1q-450 0 -450 -460v-690zM199 1502q0 61 50 98l352 205l356 -208q47 -36 46 -101q0 -94 -101 -97q-52 0 -102 24l-205 125l-196 -124q-38 -24 -99 -25 q-103 7 -101 103zM300 701v143q0 154 153 154h345v-297h-498z" />
<glyph unicode="&#xc3;" d="M0 148q0 -150 150 -150t150 152l1 250l497 -1v-249q0 -152 153 -152q147 0 147 152v999q0 148 -150 148l-498 1q-450 0 -450 -460v-690zM78 1534q-1 78 67 111q205 95 399 -3q205 -101 402 8q73 38 76 -99q3 -70 -74 -103q-203 -106 -398 -4q-205 100 -402 -12 q-69 -30 -70 102zM300 701v143q0 154 153 154h345v-297h-498z" />
<glyph unicode="&#xc4;" d="M0 148q0 -150 150 -150t150 152l1 250l497 -1v-249q0 -152 153 -152q147 0 147 152v999q0 148 -150 148l-498 1q-450 0 -450 -460v-690zM143 1550q0 39 20 75t55.5 55t73.5 19q37 0 72.5 -19t55.5 -55t20 -75q0 -38 -19.5 -73.5t-55 -55t-73.5 -19.5q-39 0 -74 19.5 t-55 55t-20 73.5zM300 701v143q0 154 153 154h345v-297h-498zM653 1550q0 39 20 75t55.5 55t73.5 19q37 0 72.5 -19t55.5 -55t20 -75q0 -38 -19.5 -73.5t-55 -55t-73.5 -19.5q-39 0 -74 19.5t-55 55t-20 73.5z" />
<glyph unicode="&#xc5;" d="M0 148q0 -150 150 -150t150 152l1 250l497 -1v-249q0 -152 153 -152q147 0 147 152v999q0 148 -150 148l-498 1q-450 0 -450 -460v-690zM300 701v143q0 154 153 154h345v-297h-498zM402 1597q0 52 27 100.5t74.5 74t98.5 25.5q50 0 97.5 -25.5t74.5 -74t27 -100.5 q0 -51 -26 -98.5t-74 -74t-99 -26.5q-52 0 -99 26.5t-74 74t-27 98.5zM504 1597q0 -25 13.5 -48t36.5 -36t48 -13t48.5 13t36 36t12.5 48q0 26 -13 49.5t-36.5 36t-47.5 12.5q-25 0 -48 -12.5t-36.5 -36t-13.5 -49.5z" />
<glyph unicode="&#xc6;" horiz-adv-x="2048" />
<glyph unicode="&#xc7;" d="M0 458q0 -460 450 -460h502q150 0 150 148q0 151 -147 151l-502 1q-153 0 -153 153v392q0 158 146 157h502q152 3 153 149q0 150 -157 149h-494q-450 0 -450 -454v-386zM388 -262v-13q0 -132 132 -132h147q43 0 43 45q0 43 -44 44h-146q-45 0 -45 42v15q0 45 45 45h73 q45 0 45 46v101q0 43 -43 43q-44 0 -44 -44v-58h-32q-131 0 -131 -134z" />
<glyph unicode="&#xc8;" d="M0 458q0 -460 450 -460h502q150 0 150 148q0 151 -147 151l-502 1q-153 0 -153 153v50l452 1q150 0 149 146q0 153 -152 155l-449 -2v200l648 -1q152 3 153 149q0 150 -157 149h-794q-150 0 -150 -150v-690zM177 1724q49 143 237 71l377 -139q183 -65 134 -207 q-51 -136 -236 -71l-377 139q-189 69 -135 207z" />
<glyph unicode="&#xc9;" d="M0 458q0 -460 450 -460h502q150 0 150 148q0 151 -147 151l-502 1q-153 0 -153 153v50l452 1q150 0 149 146q0 153 -152 155l-449 -2v200l648 -1q152 3 153 149q0 150 -157 149h-794q-150 0 -150 -150v-690zM183 1444q-48 143 134 208l377 139q189 71 238 -71 q54 -138 -136 -207l-376 -139q-186 -65 -237 70z" />
<glyph unicode="&#xca;" d="M0 458q0 -460 450 -460h502q150 0 150 148q0 151 -147 151l-502 1q-153 0 -153 153v50l452 1q150 0 149 146q0 153 -152 155l-449 -2v200l648 -1q152 3 153 149q0 150 -157 149h-794q-150 0 -150 -150v-690zM150 1502q0 61 51 98l351 205l356 -208q47 -36 46 -101 q0 -94 -100 -97q-52 0 -103 24l-204 125l-197 -124q-37 -24 -99 -25q-102 7 -101 103z" />
<glyph unicode="&#xcb;" d="M0 458q0 -460 450 -460h502q150 0 150 148q0 151 -147 151l-502 1q-153 0 -153 153v50l452 1q150 0 149 146q0 153 -152 155l-449 -2v200l648 -1q152 3 153 149q0 150 -157 149h-794q-150 0 -150 -150v-690zM143 1550q0 39 20 75t55.5 55t73.5 19q37 0 72.5 -19t55.5 -55 t20 -75q0 -38 -19.5 -73.5t-55 -55t-73.5 -19.5q-39 0 -74 19.5t-55 55t-20 73.5zM653 1550q0 39 20 75t55.5 55t73.5 19q37 0 72.5 -19t55.5 -55t20 -75q0 -38 -19.5 -73.5t-55 -55t-73.5 -19.5q-39 0 -74 19.5t-55 55t-20 73.5z" />
<glyph unicode="&#xcc;" horiz-adv-x="649" d="M-160 1748q71 133 245 34l221 -123q171 -92 101 -226q-71 -126 -244 -33l-221 123q-176 97 -102 225zM0 1143q-2 -145 150 -145v-846q0 -152 152 -152q148 0 148 152v997q0 148 -150 151l-150 -2q-150 -3 -150 -155z" />
<glyph unicode="&#xcd;" horiz-adv-x="653" d="M0 1143q-2 -145 150 -145v-846q0 -152 152 -152q148 0 148 152v997q0 148 -150 151l-150 -2q-150 -3 -150 -155zM132 1425q-70 134 101 226l220 122q175 100 246 -33q74 -128 -102 -226l-221 -123q-173 -92 -244 34z" />
<glyph unicode="&#xce;" horiz-adv-x="649" d="M-101 1502q0 61 51 98l351 205l356 -208q47 -36 45 -101q1 -94 -100 -97q-52 0 -102 24l-205 125l-196 -124q-38 -24 -99 -25q-102 7 -101 103zM0 1143q-2 -145 150 -145v-846q0 -152 152 -152q148 0 148 152v997q0 148 -150 151l-150 -2q-150 -3 -150 -155z" />
<glyph unicode="&#xcf;" horiz-adv-x="649" d="M-46 1550q0 39 20 75t55.5 55t73.5 19q37 0 72.5 -19t55.5 -55t20 -75q0 -38 -19.5 -73.5t-55 -55t-73.5 -19.5q-39 0 -74 19.5t-55 55t-20 73.5zM0 1143q-2 -145 150 -145v-846q0 -152 152 -152q148 0 148 152v997q0 148 -150 151l-150 -2q-150 -3 -150 -155zM332 1550 q0 39 20 75t55.5 55t73.5 19q37 0 72.5 -19t55.5 -55t20 -75q0 -38 -19.5 -73.5t-55 -55t-73.5 -19.5q-39 0 -74 19.5t-55 55t-20 73.5z" />
<glyph unicode="&#xd0;" horiz-adv-x="1479" />
<glyph unicode="&#xd1;" d="M0 152q0 -152 148 -152q152 0 152 152v846h350q152 0 152 -154v-694q0 -152 150 -152t150 150v690q0 460 -450 460l-502 -1q-150 0 -150 -148v-997zM78 1534q-1 78 67 111q205 95 399 -3q205 -101 402 8q73 38 76 -99q3 -70 -74 -103q-203 -106 -398 -4 q-205 100 -402 -12q-69 -30 -70 102z" />
<glyph unicode="&#xd2;" d="M0 450q0 -450 447 -450h205q450 0 450 460v389q0 451 -452 451h-199q-451 0 -451 -452v-398zM160 1720q49 142 238 71l377 -139q182 -65 134 -208q-51 -135 -237 -70l-376 139q-190 69 -136 207zM300 454v395q0 149 148 149h202q152 0 152 -145v-399q0 -154 -152 -154 h-202q-148 0 -148 154z" />
<glyph unicode="&#xd3;" d="M0 450q0 -450 447 -450h205q450 0 450 460v389q0 451 -452 451h-199q-451 0 -451 -452v-398zM183 1444q-48 143 134 208l377 139q189 71 238 -71q54 -138 -136 -207l-376 -139q-186 -65 -237 70zM300 454v395q0 149 148 149h202q152 0 152 -145v-399q0 -154 -152 -154 h-202q-148 0 -148 154z" />
<glyph unicode="&#xd4;" d="M0 450q0 -450 447 -450h205q450 0 450 460v389q0 451 -452 451h-199q-451 0 -451 -452v-398zM149 1502q0 61 51 98l351 205l356 -208q47 -36 46 -101q0 -94 -100 -97q-52 0 -103 24l-204 125l-197 -124q-37 -24 -99 -25q-102 7 -101 103zM300 454v395q0 149 148 149h202 q152 0 152 -145v-399q0 -154 -152 -154h-202q-148 0 -148 154z" />
<glyph unicode="&#xd5;" d="M0 450q0 -450 447 -450h205q450 0 450 460v389q0 451 -452 451h-199q-451 0 -451 -452v-398zM78 1534q-1 78 67 111q205 95 399 -3q205 -101 402 8q73 38 76 -99q3 -70 -74 -103q-203 -106 -398 -4q-205 100 -402 -12q-69 -30 -70 102zM300 454v395q0 149 148 149h202 q152 0 152 -145v-399q0 -154 -152 -154h-202q-148 0 -148 154z" />
<glyph unicode="&#xd6;" d="M0 450q0 -450 447 -450h205q450 0 450 460v389q0 451 -452 451h-199q-451 0 -451 -452v-398zM143 1550q0 39 20 75t55.5 55t73.5 19q37 0 72.5 -19t55.5 -55t20 -75q0 -38 -19.5 -73.5t-55 -55t-73.5 -19.5q-39 0 -74 19.5t-55 55t-20 73.5zM300 454v395q0 149 148 149 h202q152 0 152 -145v-399q0 -154 -152 -154h-202q-148 0 -148 154zM653 1550q0 39 20 75t55.5 55t73.5 19q37 0 72.5 -19t55.5 -55t20 -75q0 -38 -19.5 -73.5t-55 -55t-73.5 -19.5q-39 0 -74 19.5t-55 55t-20 73.5z" />
<glyph unicode="&#xd7;" horiz-adv-x="1196" />
<glyph unicode="&#xd8;" horiz-adv-x="1301" d="M0 450q0 -450 447 -450h205q450 0 450 460v389q0 451 -452 451h-199q-451 0 -451 -452v-398zM26 154q-113 -156 7 -246q118 -84 235 75l819 1158q118 164 -4 248q-122 90 -237 -76zM300 454v395q0 149 148 149h202q152 0 152 -145v-399q0 -154 -152 -154h-202 q-148 0 -148 154z" />
<glyph unicode="&#xd9;" d="M0 461q0 -460 450 -460l502 -1q150 0 150 148v1001q0 152 -147 152q-153 0 -153 -152v-848h-349q-153 0 -153 154v694q0 152 -150 152t-150 -150v-690zM160 1720q49 142 238 71l377 -139q182 -65 134 -208q-51 -135 -237 -70l-376 139q-190 69 -136 207z" />
<glyph unicode="&#xda;" d="M0 461q0 -460 450 -460l502 -1q150 0 150 148v1001q0 152 -147 152q-153 0 -153 -152v-848h-349q-153 0 -153 154v694q0 152 -150 152t-150 -150v-690zM183 1444q-48 143 134 208l377 139q189 71 238 -71q54 -138 -136 -207l-376 -139q-186 -65 -237 70z" />
<glyph unicode="&#xdb;" d="M0 461q0 -460 450 -460l502 -1q150 0 150 148v1001q0 152 -147 152q-153 0 -153 -152v-848h-349q-153 0 -153 154v694q0 152 -150 152t-150 -150v-690zM149 1502q0 61 51 98l351 205l356 -208q47 -36 46 -101q0 -94 -100 -97q-52 0 -103 24l-204 125l-197 -124 q-37 -24 -99 -25q-102 7 -101 103z" />
<glyph unicode="&#xdc;" d="M0 461q0 -460 450 -460l502 -1q150 0 150 148v1001q0 152 -147 152q-153 0 -153 -152v-848h-349q-153 0 -153 154v694q0 152 -150 152t-150 -150v-690zM143 1550q0 39 20 75t55.5 55t73.5 19q37 0 72.5 -19t55.5 -55t20 -75q0 -38 -19.5 -73.5t-55 -55t-73.5 -19.5 q-39 0 -74 19.5t-55 55t-20 73.5zM653 1550q0 39 20 75t55.5 55t73.5 19q37 0 72.5 -19t55.5 -55t20 -75q0 -38 -19.5 -73.5t-55 -55t-73.5 -19.5q-39 0 -74 19.5t-55 55t-20 73.5z" />
<glyph unicode="&#xdd;" horiz-adv-x="1366" />
<glyph unicode="&#xde;" horiz-adv-x="1366" />
<glyph unicode="&#xdf;" horiz-adv-x="1251" />
<glyph unicode="&#xe0;" d="M0 148q0 -150 150 -150t150 152l1 250l497 -1v-249q0 -152 153 -152q147 0 147 152v999q0 148 -150 148l-498 1q-450 0 -450 -460v-690zM231 1720q49 142 238 71l376 -139q183 -65 135 -208q-52 -135 -237 -70l-376 139q-190 69 -136 207zM300 701v143q0 154 153 154h345 v-297h-498z" />
<glyph unicode="&#xe1;" d="M0 148q0 -150 150 -150t150 152l1 250l497 -1v-249q0 -152 153 -152q147 0 147 152v999q0 148 -150 148l-498 1q-450 0 -450 -460v-690zM229 1444q-48 143 134 208l377 139q188 71 238 -71q54 -138 -136 -207l-376 -139q-186 -65 -237 70zM300 701v143q0 154 153 154h345 v-297h-498z" />
<glyph unicode="&#xe2;" d="M0 148q0 -150 150 -150t150 152l1 250l497 -1v-249q0 -152 153 -152q147 0 147 152v999q0 148 -150 148l-498 1q-450 0 -450 -460v-690zM199 1502q0 61 50 98l352 205l356 -208q47 -36 46 -101q0 -94 -101 -97q-52 0 -102 24l-205 125l-196 -124q-38 -24 -99 -25 q-103 7 -101 103zM300 701v143q0 154 153 154h345v-297h-498z" />
<glyph unicode="&#xe3;" d="M0 148q0 -150 150 -150t150 152l1 250l497 -1v-249q0 -152 153 -152q147 0 147 152v999q0 148 -150 148l-498 1q-450 0 -450 -460v-690zM78 1534q-1 78 67 111q205 95 399 -3q205 -101 402 8q73 38 76 -99q3 -70 -74 -103q-203 -106 -398 -4q-205 100 -402 -12 q-69 -30 -70 102zM300 701v143q0 154 153 154h345v-297h-498z" />
<glyph unicode="&#xe4;" d="M0 148q0 -150 150 -150t150 152l1 250l497 -1v-249q0 -152 153 -152q147 0 147 152v999q0 148 -150 148l-498 1q-450 0 -450 -460v-690zM143 1550q0 39 20 75t55.5 55t73.5 19q37 0 72.5 -19t55.5 -55t20 -75q0 -38 -19.5 -73.5t-55 -55t-73.5 -19.5q-39 0 -74 19.5 t-55 55t-20 73.5zM300 701v143q0 154 153 154h345v-297h-498zM653 1550q0 39 20 75t55.5 55t73.5 19q37 0 72.5 -19t55.5 -55t20 -75q0 -38 -19.5 -73.5t-55 -55t-73.5 -19.5q-39 0 -74 19.5t-55 55t-20 73.5z" />
<glyph unicode="&#xe5;" d="M0 148q0 -150 150 -150t150 152l1 250l497 -1v-249q0 -152 153 -152q147 0 147 152v999q0 148 -150 148l-498 1q-450 0 -450 -460v-690zM300 701v143q0 154 153 154h345v-297h-498zM402 1597q0 52 27 100.5t74.5 74t98.5 25.5q50 0 97.5 -25.5t74.5 -74t27 -100.5 q0 -51 -26 -98.5t-74 -74t-99 -26.5q-52 0 -99 26.5t-74 74t-27 98.5zM504 1597q0 -25 13.5 -48t36.5 -36t48 -13t48.5 13t36 36t12.5 48q0 26 -13 49.5t-36.5 36t-47.5 12.5q-25 0 -48 -12.5t-36.5 -36t-13.5 -49.5z" />
<glyph unicode="&#xe6;" horiz-adv-x="1821" />
<glyph unicode="&#xe7;" d="M0 458q0 -460 450 -460h502q150 0 150 148q0 151 -147 151l-502 1q-153 0 -153 153v392q0 158 146 157h502q152 3 153 149q0 150 -157 149h-494q-450 0 -450 -454v-386zM388 -262v-13q0 -132 132 -132h147q43 0 43 45q0 43 -44 44h-146q-45 0 -45 42v15q0 45 45 45h73 q45 0 45 46v101q0 43 -43 43q-44 0 -44 -44v-58h-32q-131 0 -131 -134z" />
<glyph unicode="&#xe8;" d="M0 458q0 -460 450 -460h502q150 0 150 148q0 151 -147 151l-502 1q-153 0 -153 153v50l452 1q150 0 149 146q0 153 -152 155l-449 -2v200l648 -1q152 3 153 149q0 150 -157 149h-794q-150 0 -150 -150v-690zM177 1724q49 143 237 71l377 -139q183 -65 134 -207 q-51 -136 -236 -71l-377 139q-189 69 -135 207z" />
<glyph unicode="&#xe9;" d="M0 458q0 -460 450 -460h502q150 0 150 148q0 151 -147 151l-502 1q-153 0 -153 153v50l452 1q150 0 149 146q0 153 -152 155l-449 -2v200l648 -1q152 3 153 149q0 150 -157 149h-794q-150 0 -150 -150v-690zM183 1444q-48 143 134 208l377 139q189 71 238 -71 q54 -138 -136 -207l-376 -139q-186 -65 -237 70z" />
<glyph unicode="&#xea;" d="M0 458q0 -460 450 -460h502q150 0 150 148q0 151 -147 151l-502 1q-153 0 -153 153v50l452 1q150 0 149 146q0 153 -152 155l-449 -2v200l648 -1q152 3 153 149q0 150 -157 149h-794q-150 0 -150 -150v-690zM150 1502q0 61 51 98l351 205l356 -208q47 -36 46 -101 q0 -94 -100 -97q-52 0 -103 24l-204 125l-197 -124q-37 -24 -99 -25q-102 7 -101 103z" />
<glyph unicode="&#xeb;" d="M0 458q0 -460 450 -460h502q150 0 150 148q0 151 -147 151l-502 1q-153 0 -153 153v50l452 1q150 0 149 146q0 153 -152 155l-449 -2v200l648 -1q152 3 153 149q0 150 -157 149h-794q-150 0 -150 -150v-690zM143 1550q0 39 20 75t55.5 55t73.5 19q37 0 72.5 -19t55.5 -55 t20 -75q0 -38 -19.5 -73.5t-55 -55t-73.5 -19.5q-39 0 -74 19.5t-55 55t-20 73.5zM653 1550q0 39 20 75t55.5 55t73.5 19q37 0 72.5 -19t55.5 -55t20 -75q0 -38 -19.5 -73.5t-55 -55t-73.5 -19.5q-39 0 -74 19.5t-55 55t-20 73.5z" />
<glyph unicode="&#xec;" horiz-adv-x="649" d="M-160 1748q71 133 245 34l221 -123q171 -92 101 -226q-71 -126 -244 -33l-221 123q-176 97 -102 225zM0 1143q-2 -145 150 -145v-846q0 -152 152 -152q148 0 148 152v997q0 148 -150 151l-150 -2q-150 -3 -150 -155z" />
<glyph unicode="&#xed;" horiz-adv-x="653" d="M0 1143q-2 -145 150 -145v-846q0 -152 152 -152q148 0 148 152v997q0 148 -150 151l-150 -2q-150 -3 -150 -155zM132 1425q-70 134 101 226l220 122q175 100 246 -33q74 -128 -102 -226l-221 -123q-173 -92 -244 34z" />
<glyph unicode="&#xee;" horiz-adv-x="649" d="M-101 1502q0 61 51 98l351 205l356 -208q47 -36 45 -101q1 -94 -100 -97q-52 0 -102 24l-205 125l-196 -124q-38 -24 -99 -25q-102 7 -101 103zM0 1143q-2 -145 150 -145v-846q0 -152 152 -152q148 0 148 152v997q0 148 -150 151l-150 -2q-150 -3 -150 -155z" />
<glyph unicode="&#xef;" horiz-adv-x="649" d="M-46 1550q0 39 20 75t55.5 55t73.5 19q37 0 72.5 -19t55.5 -55t20 -75q0 -38 -19.5 -73.5t-55 -55t-73.5 -19.5q-39 0 -74 19.5t-55 55t-20 73.5zM0 1143q-2 -145 150 -145v-846q0 -152 152 -152q148 0 148 152v997q0 148 -150 151l-150 -2q-150 -3 -150 -155zM332 1550 q0 39 20 75t55.5 55t73.5 19q37 0 72.5 -19t55.5 -55t20 -75q0 -38 -19.5 -73.5t-55 -55t-73.5 -19.5q-39 0 -74 19.5t-55 55t-20 73.5z" />
<glyph unicode="&#xf0;" horiz-adv-x="1139" />
<glyph unicode="&#xf1;" d="M0 152q0 -152 148 -152q152 0 152 152v846h350q152 0 152 -154v-694q0 -152 150 -152t150 150v690q0 460 -450 460l-502 -1q-150 0 -150 -148v-997zM78 1534q-1 78 67 111q205 95 399 -3q205 -101 402 8q73 38 76 -99q3 -70 -74 -103q-203 -106 -398 -4 q-205 100 -402 -12q-69 -30 -70 102z" />
<glyph unicode="&#xf2;" d="M0 450q0 -450 447 -450h205q450 0 450 460v389q0 451 -452 451h-199q-451 0 -451 -452v-398zM160 1720q49 142 238 71l377 -139q182 -65 134 -208q-51 -135 -237 -70l-376 139q-190 69 -136 207zM300 454v395q0 149 148 149h202q152 0 152 -145v-399q0 -154 -152 -154 h-202q-148 0 -148 154z" />
<glyph unicode="&#xf3;" d="M0 450q0 -450 447 -450h205q450 0 450 460v389q0 451 -452 451h-199q-451 0 -451 -452v-398zM183 1444q-48 143 134 208l377 139q189 71 238 -71q54 -138 -136 -207l-376 -139q-186 -65 -237 70zM300 454v395q0 149 148 149h202q152 0 152 -145v-399q0 -154 -152 -154 h-202q-148 0 -148 154z" />
<glyph unicode="&#xf4;" d="M0 450q0 -450 447 -450h205q450 0 450 460v389q0 451 -452 451h-199q-451 0 -451 -452v-398zM149 1502q0 61 51 98l351 205l356 -208q47 -36 46 -101q0 -94 -100 -97q-52 0 -103 24l-204 125l-197 -124q-37 -24 -99 -25q-102 7 -101 103zM300 454v395q0 149 148 149h202 q152 0 152 -145v-399q0 -154 -152 -154h-202q-148 0 -148 154z" />
<glyph unicode="&#xf5;" d="M0 450q0 -450 447 -450h205q450 0 450 460v389q0 451 -452 451h-199q-451 0 -451 -452v-398zM78 1534q-1 78 67 111q205 95 399 -3q205 -101 402 8q73 38 76 -99q3 -70 -74 -103q-203 -106 -398 -4q-205 100 -402 -12q-69 -30 -70 102zM300 454v395q0 149 148 149h202 q152 0 152 -145v-399q0 -154 -152 -154h-202q-148 0 -148 154z" />
<glyph unicode="&#xf6;" d="M0 450q0 -450 447 -450h205q450 0 450 460v389q0 451 -452 451h-199q-451 0 -451 -452v-398zM143 1550q0 39 20 75t55.5 55t73.5 19q37 0 72.5 -19t55.5 -55t20 -75q0 -38 -19.5 -73.5t-55 -55t-73.5 -19.5q-39 0 -74 19.5t-55 55t-20 73.5zM300 454v395q0 149 148 149 h202q152 0 152 -145v-399q0 -154 -152 -154h-202q-148 0 -148 154zM653 1550q0 39 20 75t55.5 55t73.5 19q37 0 72.5 -19t55.5 -55t20 -75q0 -38 -19.5 -73.5t-55 -55t-73.5 -19.5q-39 0 -74 19.5t-55 55t-20 73.5z" />
<glyph unicode="&#xf7;" horiz-adv-x="1124" />
<glyph unicode="&#xf8;" horiz-adv-x="1301" d="M0 450q0 -450 447 -450h205q450 0 450 460v389q0 451 -452 451h-199q-451 0 -451 -452v-398zM26 154q-113 -156 7 -246q118 -84 235 75l819 1158q118 164 -4 248q-122 90 -237 -76zM300 454v395q0 149 148 149h202q152 0 152 -145v-399q0 -154 -152 -154h-202 q-148 0 -148 154z" />
<glyph unicode="&#xf9;" d="M0 461q0 -460 450 -460l502 -1q150 0 150 148v1001q0 152 -147 152q-153 0 -153 -152v-848h-349q-153 0 -153 154v694q0 152 -150 152t-150 -150v-690zM160 1720q49 142 238 71l377 -139q182 -65 134 -208q-51 -135 -237 -70l-376 139q-190 69 -136 207z" />
<glyph unicode="&#xfa;" d="M0 461q0 -460 450 -460l502 -1q150 0 150 148v1001q0 152 -147 152q-153 0 -153 -152v-848h-349q-153 0 -153 154v694q0 152 -150 152t-150 -150v-690zM183 1444q-48 143 134 208l377 139q189 71 238 -71q54 -138 -136 -207l-376 -139q-186 -65 -237 70z" />
<glyph unicode="&#xfb;" d="M0 461q0 -460 450 -460l502 -1q150 0 150 148v1001q0 152 -147 152q-153 0 -153 -152v-848h-349q-153 0 -153 154v694q0 152 -150 152t-150 -150v-690zM149 1502q0 61 51 98l351 205l356 -208q47 -36 46 -101q0 -94 -100 -97q-52 0 -103 24l-204 125l-197 -124 q-37 -24 -99 -25q-102 7 -101 103z" />
<glyph unicode="&#xfc;" d="M0 461q0 -460 450 -460l502 -1q150 0 150 148v1001q0 152 -147 152q-153 0 -153 -152v-848h-349q-153 0 -153 154v694q0 152 -150 152t-150 -150v-690zM143 1550q0 39 20 75t55.5 55t73.5 19q37 0 72.5 -19t55.5 -55t20 -75q0 -38 -19.5 -73.5t-55 -55t-73.5 -19.5 q-39 0 -74 19.5t-55 55t-20 73.5zM653 1550q0 39 20 75t55.5 55t73.5 19q37 0 72.5 -19t55.5 -55t20 -75q0 -38 -19.5 -73.5t-55 -55t-73.5 -19.5q-39 0 -74 19.5t-55 55t-20 73.5z" />
<glyph unicode="&#xfd;" horiz-adv-x="1024" />
<glyph unicode="&#xfe;" horiz-adv-x="1139" />
<glyph unicode="&#xff;" horiz-adv-x="1024" />
<glyph unicode="&#x152;" horiz-adv-x="2048" />
<glyph unicode="&#x153;" horiz-adv-x="1933" />
<glyph unicode="&#x178;" horiz-adv-x="1366" />
<glyph unicode="&#x2c6;" horiz-adv-x="682" />
<glyph unicode="&#x2dc;" horiz-adv-x="682" />
<glyph unicode="&#x2000;" horiz-adv-x="912" />
<glyph unicode="&#x2001;" horiz-adv-x="1824" />
<glyph unicode="&#x2002;" horiz-adv-x="912" />
<glyph unicode="&#x2003;" horiz-adv-x="1824" />
<glyph unicode="&#x2004;" horiz-adv-x="608" />
<glyph unicode="&#x2005;" horiz-adv-x="456" />
<glyph unicode="&#x2006;" horiz-adv-x="304" />
<glyph unicode="&#x2007;" horiz-adv-x="304" />
<glyph unicode="&#x2008;" horiz-adv-x="228" />
<glyph unicode="&#x2009;" horiz-adv-x="364" />
<glyph unicode="&#x200a;" horiz-adv-x="101" />
<glyph unicode="&#x2010;" horiz-adv-x="1202" d="M1 950q4 151 197 149h402q201 2 198 -149q3 -148 -198 -148h-402q-196 3 -197 148z" />
<glyph unicode="&#x2011;" horiz-adv-x="1202" d="M1 950q4 151 197 149h402q201 2 198 -149q3 -148 -198 -148h-402q-196 3 -197 148z" />
<glyph unicode="&#x2012;" horiz-adv-x="1202" d="M1 950q4 151 197 149h402q201 2 198 -149q3 -148 -198 -148h-402q-196 3 -197 148z" />
<glyph unicode="&#x2013;" horiz-adv-x="1139" />
<glyph unicode="&#x2014;" horiz-adv-x="2048" />
<glyph unicode="&#x2018;" horiz-adv-x="455" />
<glyph unicode="&#x2019;" horiz-adv-x="455" />
<glyph unicode="&#x201a;" horiz-adv-x="455" />
<glyph unicode="&#x201c;" horiz-adv-x="682" />
<glyph unicode="&#x201d;" horiz-adv-x="682" />
<glyph unicode="&#x201e;" horiz-adv-x="682" />
<glyph unicode="&#x2022;" horiz-adv-x="717" />
<glyph unicode="&#x2026;" horiz-adv-x="2048" />
<glyph unicode="&#x202f;" horiz-adv-x="364" />
<glyph unicode="&#x2039;" horiz-adv-x="682" />
<glyph unicode="&#x203a;" horiz-adv-x="682" />
<glyph unicode="&#x205f;" horiz-adv-x="456" />
<glyph unicode="&#x20ac;" horiz-adv-x="1498" d="M-211 855h1214l105 197h-1214zM-205 546h1214l105 197h-1214zM0 598q0 -600 602 -600h350q150 0 150 148q0 151 -147 151l-350 1q-305 0 -305 293v409q0 298 298 297h350q152 3 153 149q0 150 -157 149h-342q-602 0 -602 -594v-403z" />
<glyph unicode="&#x2122;" horiz-adv-x="2048" />
<glyph unicode="&#xe000;" horiz-adv-x="1305" d="M0 1305h1305v-1305h-1305v1305z" />
<glyph unicode="&#xf001;" horiz-adv-x="1024" />
<glyph unicode="&#xfb01;" horiz-adv-x="1024" />
<glyph unicode="&#xf002;" horiz-adv-x="1024" />
<glyph unicode="&#xfb02;" horiz-adv-x="1024" />
<glyph unicode="&#xfb03;" horiz-adv-x="2451" d="M1798 1143q-2 -145 150 -145v-846q0 -152 152 -152q148 0 148 152v997q0 148 -150 151l-150 -2q-150 -3 -150 -155zM1941 1550q0 39 20 75t55.5 55t73.5 19q37 0 72.5 -19t55.5 -55t20 -75q0 -38 -19.5 -73.5t-55 -55t-73.5 -19.5q-39 0 -74 19.5t-55 55t-20 73.5z M899 148q0 -150 150 -150h2q149 0 148 149v653l244 1h2q155 0 155 149q0 146 -152 149l-249 -1v147q0 153 153 153l102 1q148 0 148 151q0 148 -150 148h-103q-450 0 -450 -460v-1090zM0 148q0 -150 150 -150h2q149 0 148 149v653l244 1h2q155 0 155 149q0 146 -152 149 l-249 -1v147q0 153 153 153l102 1q148 0 148 151q0 148 -150 148h-103q-450 0 -450 -460v-1090z" />
<glyph unicode="&#xfb04;" horiz-adv-x="2451" d="M1798 151q0 -149 150 -151l150 2q150 3 150 154v6q0 140 -150 140v1248q0 153 -152 153q-148 0 -148 -153v-1399zM899 148q0 -150 150 -150h2q149 0 148 149v653l244 1h2q155 0 155 149q0 146 -152 149l-249 -1v147q0 153 153 153l102 1q148 0 148 151q0 148 -150 148 h-103q-450 0 -450 -460v-1090zM0 148q0 -150 150 -150h2q149 0 148 149v653l244 1h2q155 0 155 149q0 146 -152 149l-249 -1v147q0 153 153 153l102 1q148 0 148 151q0 148 -150 148h-103q-450 0 -450 -460v-1090z" />
</font>
</defs>
</svg>
